<?xml version="1.0" encoding="UTF-8"?>
<svg width="210px" height="44px" viewBox="0 0 210 44" version="1.1" xmlns="http://www.w3.org/2000/svg" xmlns:xlink="http://www.w3.org/1999/xlink">
    <!-- Generator: Sketch 63.1 (92452) - https://sketch.com -->
    <title>JoinTalksLogo</title>
    <desc>Created with Sketch.</desc>
    <g id="Pantallas-clave-Android" stroke="none" stroke-width="1" fill="none" fill-rule="evenodd">
        <g id="2-Pantallas-clave" transform="translate(-75.000000, -298.000000)" fill="#5886C0" fill-rule="nonzero">
            <g id="JoinTalksLogo" transform="translate(75.000000, 298.000000)">
                <ellipse id="Oval" cx="8.68421053" cy="7.07142857" rx="7.10526316" ry="7.07142857"></ellipse>
                <path d="M36.3055476,4.71428571 L36.1807175,4.71428571 L24.0929957,4.71428571 L23.8641404,4.71428571 C22.8434623,4.7454068 21.8994402,5.27217321 21.3259269,6.13061447 C19.9187785,8.35155893 18.3615935,10.4705756 16.6656005,12.472385 C15.1740671,14.1292058 13.3604994,15.4536466 11.3395131,16.3620043 C9.14536864,17.1343125 7.04998999,18.1704444 5.09800448,19.4483326 C0.1604068,23.4570862 -1.3981669,30.3994073 1.34006997,36.187219 C4.07830684,41.9750308 10.3876682,45.0744502 16.5528036,43.6603434 C22.7179391,42.2462367 27.1049677,36.6933696 27.1305299,30.271621 L27.1305299,18.3068139 L36.3055476,18.3068139 C39.8549172,18.1056035 42.6315789,15.1225442 42.6315789,11.5105498 C42.6315789,7.8985554 39.8549172,4.91549614 36.3055476,4.71428571 L36.3055476,4.71428571 Z" id="Path"></path>
                <path d="M55.6810447,9.42857143 L61.5789474,9.42857143 L61.5789474,26.567361 C61.5789474,34.4034335 58.2026118,37.7138599 52.0696478,37.7138599 C50.4719944,37.726007 48.8833532,37.4782023 47.3684211,36.9805376 L48.0736051,31.7425212 C49.1440798,32.1149473 50.2713363,32.3062408 51.4072022,32.308227 C54.0783538,32.308227 55.6810447,30.9672948 55.6810447,26.3787924 L55.6810447,9.42857143 Z" id="Path"></path>
                <path d="M85.2308733,26.4958064 C85.4599716,29.429517 84.4619983,32.3249875 82.4847976,34.4631351 C80.5075969,36.6012826 77.7366588,37.781518 74.8601389,37.7107327 C72.070519,37.7864272 69.3801422,36.6497118 67.4559933,34.5823954 C65.5318444,32.515079 64.5540824,29.7107254 64.7651091,26.8645758 C64.7651091,20.3568816 68.7310137,15.7147265 75.369132,15.7147265 C78.1126612,15.6884298 80.741285,16.8399043 82.6157675,18.8891313 C84.4902501,20.9383582 85.438846,23.6975817 85.2308733,26.4958064 L85.2308733,26.4958064 Z M70.8518182,26.6910373 C70.8518182,30.2485767 72.4212136,32.8733467 75.0934274,32.8733467 C77.7656412,32.8733467 79.1865802,30.7041153 79.1865802,26.6476526 C79.1865802,23.5022671 77.9565136,20.4870355 75.1358435,20.4870355 C72.3151734,20.4870355 70.8518182,23.6107287 70.8518182,26.6910373 Z" id="Shape"></path>
                <path d="M94.7341412,12.4926252 C94.7105814,14.1590586 93.2827016,15.4927787 91.542244,15.474037 C89.8017865,15.4552952 88.4055944,14.0911647 88.4211819,12.4246455 C88.4367693,10.7581263 89.8582536,9.41815762 91.5987826,9.42926566 C92.447075,9.41162653 93.2651961,9.73078366 93.8590802,10.31103 C94.4529642,10.8912764 94.7696951,11.680911 94.7341412,12.4926252 L94.7341412,12.4926252 Z M88.5913979,37.7142857 L88.5913979,18.0475173 L94.4781936,18.0475173 L94.4781936,37.7142857 L88.5913979,37.7142857 Z" id="Shape"></path>
                <path d="M99.6263097,24.219476 C99.6263097,21.6322809 99.6263097,19.4797346 99.4736842,17.7411395 L104.684756,17.7411395 L104.968203,20.638798 L105.099025,20.638798 C106.355882,18.5550233 108.696394,17.2741401 111.225849,17.2857143 C115.106898,17.2857143 118.421053,19.8936858 118.421053,26.247837 L118.421053,37.7142857 L112.403246,37.7142857 L112.403246,27.096437 C112.403246,24.2401736 111.378475,22.4187882 109.089092,22.4187882 C107.53657,22.4960893 106.214555,23.5167819 105.818545,24.9438907 C105.680367,25.4080251 105.621477,25.8901884 105.644116,26.3720224 L105.644116,37.6728906 L99.6263097,37.6728906 L99.6263097,24.219476 Z" id="Path"></path>
                <polygon id="Path" points="127.327853 14.9066638 120 14.9066638 120 9.42857143 140.526316 9.42857143 140.526316 14.9066638 133.094374 14.9066638 133.094374 37.7142857 127.327853 37.7142857"></polygon>
                <path d="M152.582446,37.3232675 L152.246491,35.2906777 L152.120508,35.2906777 C150.792366,36.8913683 148.759562,37.7885707 146.640239,37.7094596 C144.994324,37.744005 143.406406,37.1206292 142.250268,35.9860701 C141.09413,34.851511 140.471903,33.3059931 140.530055,31.7133197 C140.530055,26.6318452 144.729494,24.1114338 151.763555,24.1317597 L151.763555,23.9488266 C151.763555,23.074813 151.343611,21.4690671 148.236026,21.4690671 C146.345075,21.516139 144.502387,22.0568898 142.902738,23.0341612 L141.831881,18.9689816 C144.086137,17.7554475 146.646706,17.1780218 149.222895,17.302258 C155.333079,17.302258 157.621773,21.0422232 157.621773,25.8594611 L157.621773,32.5263556 C157.589621,34.1431829 157.680857,35.7601012 157.894737,37.3639193 L152.582446,37.3232675 Z M151.931533,28.1562875 C148.571981,28.1562875 146.283287,28.9489976 146.283287,31.1441945 C146.205508,31.7699969 146.432049,32.3953193 146.896562,32.8370225 C147.361075,33.2787257 148.010991,33.4868232 148.65597,33.4003692 C150.149662,33.344808 151.433317,32.3572994 151.826547,30.9612615 C151.867985,30.5964948 151.867985,30.2284296 151.826547,29.863663 L151.931533,28.1562875 Z" id="Shape"></path>
                <polygon id="Path" points="162.631579 7.85714286 168.947368 7.85714286 168.947368 37.7142857 162.631579 37.7142857"></polygon>
                <path d="M179.286927,25.8053331 C179.735144,25.0636723 180.203735,24.21606 180.672326,23.4955896 L184.604414,17.3080199 L191.531409,17.3080199 L184.665535,25.4874785 L192.631579,37.7142857 L185.602716,37.7142857 L180.835314,29.2381628 L179.286927,31.3571936 L179.286927,37.7142857 L173.684211,37.7142857 L173.684211,7.85714286 L179.307301,7.85714286 L179.286927,25.8053331 Z" id="Path"></path>
                <path d="M196.779467,31.6975922 C198.339921,32.6480969 200.120839,33.1966218 201.956306,33.2920646 C203.750668,33.2920646 204.451914,32.6663856 204.451914,31.7177754 C204.451914,30.7691651 203.874418,30.2645852 201.708808,29.6994558 C197.790085,28.5288304 196.201971,26.2683124 196.243221,23.8261457 C196.243221,20.0115217 199.17195,17.2867902 203.812543,17.2867902 C205.680236,17.2616614 207.526647,17.6770345 209.195631,18.497782 L208.205637,22.7766195 C206.905241,22.0572076 205.449329,21.6491525 203.956917,21.585811 C202.595676,21.585811 201.750057,22.1105741 201.750057,23.1197339 C201.750057,24.1288937 202.554427,24.5527408 204.864411,25.299519 C208.432511,26.429778 209.979375,28.2664488 210,31.3544778 C210,34.8663539 207.463143,37.7121846 201.976931,37.7121846 C199.821672,37.751024 197.691955,37.2508374 195.789474,36.2589945 L196.779467,31.6975922 Z" id="Path"></path>
            </g>
        </g>
    </g>
</svg>